<svg xmlns="http://www.w3.org/2000/svg" viewBox="0 0 24 24"><path fill="#F2F6F2" d="M12 2a9.8 9.8 0 0 0-8.4 14.8L2 22l5.4-1.5A9.9 9.9 0 1 0 12 2Zm0 17.8a7.7 7.7 0 0 1-3.9-1.1l-.3-.2-3.2.9.9-3.1-.2-.3A7.8 7.8 0 1 1 12 19.8Zm4.3-5.8c-.2-.1-1.4-.7-1.6-.8-.2-.1-.4-.1-.6.1-.2.2-.6.8-.8 1-.1.2-.3.2-.5.1-1.4-.7-2.3-1.3-3.2-2.9-.2-.3.2-.3.6-1 .1-.2.1-.4 0-.6 0-.2-.6-1.5-.8-2-.2-.5-.4-.4-.6-.4h-.5c-.2 0-.5.1-.7.3-.2.3-1 1-1 2.4s1 2.8 1.2 3c.1.2 2.1 3.2 5 4.5.7.3 1.2.5 1.7.6.7.2 1.3.2 1.8.1.6-.1 1.4-.6 1.6-1.1.2-.6.2-1 .1-1.1-.1-.1-.3-.2-.6-.3Z"/></svg>
