<svg xmlns="http://www.w3.org/2000/svg" viewBox="0 0 196.24 214.46"><g transform="translate(-285.72,3.68)"><path d="M393.08,66.42l73-48.31c.48,5.94.7,10.85-.12,15.77l-72.88,32.54Z" fill="#88C040"/><polygon points="389.29 61.26 457.66 2.32 457.81 18.6 389.29 61.26" fill="#88C040"/><path d="M381.27,67.12l-69.22-29.42c-1.87-1.19-1.49-1.91-1.48-4.12.04-7.2.09-14.4.13-21.59l70.57,55.14Z" fill="#88C040"/><path d="M475.87,134.7l-.22-81.55-.04-14.84-75.19,30.82-12.02,4.93c-4.21,1.73-8.31,1.25-12.04-1.43l-35.37-14.35-49.06-20.08-.05,32.51-.16,96.74,38.75,15.85,53.21,21.48c7.96-2.11,14.41-5.6,21.78-8.57l5.15-2.08,56.02-22.58c3.35-1.35,6.37-2.43,9.33-5.02l-.09-31.83ZM312.67,54.19v15.44s-14.56-5.58-14.56-5.58l-.02-14.82,14.58,4.96ZM312.5,167.64l-14.18-5.46-.25-15.49,14.33,4.96c1.9,4.92.99,8.62.1,15.99ZM334.94,63.48l-.04,15.65-14.31-6.04-.28-15.44,14.63,5.83ZM334.93,176.97l-14.32-6.1-.24-14.65c5.33.78,9.93,3,14.6,5.66l-.04,15.09ZM342.47,179.77v-15.21s14.44,5.33,14.44,5.33l.21,15.39c-5.25-.57-9.89-3.11-14.65-5.51ZM342.48,82.34l.02-15.2,14.41,5.29.21,15.39-14.64-5.48ZM364.82,189.01l-.05-14.88c5.22,1.01,9.36,3.21,14.33,5.29l.29,15.35c-5.22-.97-9.75-3.18-14.57-5.76ZM378.95,97.11l-14.15-5.57-.15-15.56,14.4,5.97c.68,4.89.66,9.61-.1,15.16ZM389.14,81.58l14.08-5.55c.66,5.47.99,10.17.03,15.19l-14.17,6.15.06-15.79ZM389.1,194.85l-.2-15.4,14.47-4.96.77,13.94c-4.74,2.87-9.42,5.26-15.04,6.42ZM432.65,63.42c4.88-1.63,8.85-3.32,14.18-5.99l.34,15.71-14.53,6.18v-15.9ZM410.64,186.24l-.05-15.78,14.47-5.66.19,15.64-14.61,5.8ZM410.76,88.26c-1.11-5.3-.33-10-.28-15.54l14.13-5.65.64,15.16-14.49,6.03ZM432.98,177.05l-.38-15.16c4.32-2.57,8.53-4.49,14.23-5.84l.62,15.05c-4.45,2.61-8.82,4.4-14.47,5.95ZM454.72,168.06l.04-15.87c4.83-1.49,9.18-2.79,14.39-5.41l.5,15.63-14.93,5.65ZM454.81,69.84l-.06-15.01,14.34-5.71.13,3.29.46,11.54-14.87,5.89Z" fill="#88C040"/></g></svg>
